<svg width="24" height="24" viewBox="0 0 24 24" fill="none" xmlns="http://www.w3.org/2000/svg">
<path d="M10.7392 6.04981C10.8408 5.79872 11.0151 5.58369 11.2397 5.43228C11.4643 5.28087 11.729 5.19998 11.9998 5.19998C12.2707 5.19998 12.5354 5.28087 12.76 5.43228C12.9846 5.58369 13.1588 5.79872 13.2604 6.04981C14.2659 6.32632 15.1527 6.92526 15.7848 7.75462C16.4169 8.58398 16.7593 9.59791 16.7593 10.6407V13.8343L18.005 15.7028C18.0733 15.8052 18.1125 15.9242 18.1185 16.0471C18.1245 16.1701 18.0969 16.2923 18.0389 16.4009C17.9808 16.5094 17.8944 16.6002 17.7887 16.6634C17.6831 16.7267 17.5624 16.7601 17.4393 16.76H14.3558C14.2739 17.3265 13.9907 17.8445 13.558 18.2191C13.1253 18.5938 12.5722 18.8 11.9998 18.8C11.4275 18.8 10.8743 18.5938 10.4416 18.2191C10.009 17.8445 9.72574 17.3265 9.64388 16.76H6.5604C6.43731 16.7601 6.31651 16.7267 6.21091 16.6634C6.10531 16.6002 6.01886 16.5094 5.96079 16.4009C5.90272 16.2923 5.8752 16.1701 5.88117 16.0471C5.88714 15.9242 5.92638 15.8052 5.9947 15.7028L7.24033 13.8343V10.6407C7.24033 8.4486 8.72257 6.60191 10.7392 6.04981ZM10.7568 16.76C10.8867 17.1826 11.0741 17.441 11.2762 17.584C11.4485 17.7059 11.7892 17.7713 12.0002 17.7713C12.2112 17.7713 12.5764 17.7313 12.8346 17.5486C13.1623 17.3168 13.2484 16.959 13.3186 16.76H10.7568ZM11.9998 6.85276C11.0982 6.85276 9.93618 7.28177 9.29862 7.91933C8.66106 8.55688 8.30289 9.73905 8.30289 10.6407V14.0403C8.30292 14.1746 8.26317 14.3059 8.18866 14.4177L7.24033 15.7028H16.7593L15.8041 14.4177C15.7298 14.3059 15.6903 14.1746 15.6906 14.0403V10.6407C15.6906 9.73905 15.3324 8.55688 14.6948 7.91933C14.0573 7.28177 12.9015 6.85276 11.9998 6.85276Z" fill="#161616"/>
</svg>
