<svg width="24" height="24" viewBox="0 0 24 24" fill="none" xmlns="http://www.w3.org/2000/svg">
<path d="M11.5433 7.85459L12.0001 8.39103L12.4569 7.85459C13.0444 7.16475 13.9482 6.72799 14.8801 6.72799C16.5199 6.72799 17.8001 8.00816 17.8001 9.64799C17.8001 10.6605 17.3502 11.6261 16.4357 12.7441C15.5143 13.8706 14.1851 15.0774 12.5251 16.5827L12.5242 16.5835L11.9986 17.062L11.4756 16.5896C11.4753 16.5893 11.475 16.589 11.4748 16.5888C9.81495 15.0804 8.48601 13.8723 7.56466 12.7451C6.65004 11.6261 6.2001 10.6605 6.2001 9.64799C6.2001 8.00816 7.48027 6.72799 9.1201 6.72799C10.052 6.72799 10.9558 7.16475 11.5433 7.85459Z" stroke="#161616" stroke-width="1.2"/>
</svg>
