<svg width="84" height="84" viewBox="0 0 84 84" fill="none" xmlns="http://www.w3.org/2000/svg">
<path d="M25.6087 13.1906C36.4151 11.9828 47.585 11.9828 58.3914 13.1906C62.4487 13.6441 66.0103 15.8381 68.2633 19.0245L40.2501 47.0377L31.6063 38.3938C30.5812 37.3687 28.9191 37.3687 27.894 38.3938C26.8688 39.419 26.8688 41.081 27.894 42.1062L38.394 52.6062C39.4191 53.6313 41.0811 53.6313 42.1063 52.6062L70.5103 24.2021C70.589 24.5856 70.6517 24.975 70.6979 25.3697C71.9902 36.4189 71.9902 47.5811 70.6979 58.6303C69.9459 65.0597 64.7838 70.0949 58.3914 70.8094C47.585 72.0171 36.4151 72.0171 25.6087 70.8094C19.2164 70.0949 14.0542 65.0597 13.3022 58.6303C12.0099 47.5811 12.0099 36.4189 13.3022 25.3697C14.0542 18.9403 19.2164 13.9051 25.6087 13.1906Z" fill="#C6F4C6"/>
</svg>
